<?xml version="1.0" encoding="UTF-8"?>
<svg id="Layer_1" xmlns="http://www.w3.org/2000/svg" version="1.1" viewBox="0 0 1080 299.15">
  <!-- Generator: Adobe Illustrator 29.7.1, SVG Export Plug-In . SVG Version: 2.1.1 Build 8)  -->
  <defs>
    <style>
      .st0 {
        fill: #fff;
      }

      .st1 {
        fill: #f83823;
      }

      .st2 {
        display: none;
      }
    </style>
  </defs>
  <g>
    <path d="M104.97,59.45c23.02,0,41.29,8.08,54.8,24.24,13.28,16.16,19.93,37.97,19.93,65.42s-6.64,49.26-19.93,65.42c-13.51,16.16-31.77,24.24-54.8,24.24s-38.75-8.3-50.48-24.91v86.01H2.69V63.43h50.48v22.91c11.73-17.93,29-26.9,51.81-26.9ZM90.69,197.26c11.51,0,20.48-4.26,26.9-12.78,6.42-8.52,9.63-20.76,9.63-36.7,0-31.22-12.18-46.83-36.53-46.83s-36.86,16.05-36.86,48.15,12.29,48.15,36.86,48.15Z"/>
    <path d="M301.9,60.77c.88,0,4.65.22,11.29.66v47.16h-13.28c-30.33,0-45.5,15.5-45.5,46.49v79.7h-51.81V63.43h50.48v31.88c7.97-23.02,24.24-34.54,48.82-34.54Z"/>
    <path d="M385.92,234.79h-51.81V63.43h51.81v171.36ZM384.93,43.84h-49.48V0h49.48v43.84Z"/>
    <path d="M515.11,63.43v37.86h-32.88v80.03c0,5.76,1.44,9.69,4.32,11.79,2.87,2.11,7.97,3.16,15.28,3.16h13.28v38.52c-6.2.88-14.17,1.33-23.91,1.33-21.48,0-36.98-3.82-46.49-11.46-9.52-7.64-14.28-20.2-14.28-37.69v-85.68h-25.57v-37.86h25.57V12.62h51.81v50.81h32.88Z"/>
    <path d="M616.73,238.78c-27.23,0-49.04-8.19-65.42-24.57-16.39-16.38-24.57-38.08-24.57-65.09s8.19-49.04,24.57-65.42c16.16-16.16,37.97-24.24,65.42-24.24s49.26,8.08,65.42,24.24c16.16,16.16,24.24,37.97,24.24,65.42s-8.08,48.93-24.24,65.09c-16.38,16.39-38.19,24.57-65.42,24.57ZM616.73,197.26c11.96,0,21.14-4.09,27.56-12.29,6.42-8.19,9.63-20.14,9.63-35.87s-3.21-27.67-9.63-35.87c-6.42-8.19-15.61-12.29-27.56-12.29s-21.48,4.1-27.9,12.29c-6.42,8.19-9.63,20.15-9.63,35.87s3.21,27.68,9.63,35.87c6.42,8.19,15.72,12.29,27.9,12.29Z"/>
    <path d="M935.21,59.45c18.82,0,33.54,5.59,44.17,16.77,10.63,11.18,15.94,26.96,15.94,47.32v111.25h-51.81v-102.29c0-19.26-8.53-28.89-25.57-28.89-9.08,0-16.27,3.1-21.59,9.3-5.31,6.2-7.97,15.28-7.97,27.23v94.65h-51.81v-102.29c0-19.26-8.52-28.89-25.57-28.89-9.08,0-16.33,3.1-21.75,9.3-5.43,6.2-8.14,15.28-8.14,27.23v94.65h-51.81V63.43h50.48v24.24c12.62-18.82,28.89-28.23,48.82-28.23,25.68,0,43.39,10.29,53.13,30.88,13.95-20.59,31.77-30.88,53.47-30.88Z"/>
    <path class="st1" d="M1080,234.79h-58.45v-57.12h58.45v57.12Z"/>
  </g>
  <g class="st2">
    <rect class="st0" x="236.63" y="-153.8" width="606.74" height="606.74" rx="88.39" ry="88.39"/>
    <g>
      <path d="M401.95,69.14c20.77,0,37.24,7.29,49.43,21.87,11.98,14.58,17.97,34.25,17.97,59.01s-5.99,44.44-17.97,59.01c-12.18,14.58-28.66,21.87-49.43,21.87s-34.95-7.49-45.53-22.47v77.58h-46.73V72.73h45.53v20.67c10.58-16.18,26.16-24.26,46.73-24.26ZM389.07,193.45c10.38,0,18.47-3.84,24.26-11.53,5.79-7.69,8.69-18.72,8.69-33.1,0-28.16-10.98-42.24-32.95-42.24s-33.25,14.48-33.25,43.43,11.08,43.43,33.25,43.43Z"/>
      <path d="M675.74,69.14c16.97,0,30.25,5.05,39.84,15.13,9.59,10.09,14.38,24.32,14.38,42.69v100.35h-46.73v-92.26c0-17.37-7.69-26.06-23.07-26.06-8.19,0-14.68,2.8-19.47,8.39-4.79,5.59-7.19,13.78-7.19,24.56v85.37h-46.73v-92.26c0-17.37-7.69-26.06-23.07-26.06-8.19,0-14.73,2.8-19.62,8.39-4.9,5.59-7.34,13.78-7.34,24.56v85.37h-46.73V72.73h45.53v21.87c11.38-16.97,26.06-25.46,44.04-25.46,23.16,0,39.14,9.29,47.93,27.86,12.58-18.57,28.65-27.86,48.23-27.86Z"/>
      <path class="st1" d="M806.34,227.3h-52.72v-51.52h52.72v51.52Z"/>
    </g>
  </g>
</svg>